<svg width="2289" height="737" viewBox="0 0 2289 737" fill="none" xmlns="http://www.w3.org/2000/svg">
<mask id="mask0_230_476" style="mask-type:alpha" maskUnits="userSpaceOnUse" x="0" y="0" width="2289" height="737">
<rect width="2289" height="737" fill="white"/>
</mask>
<g mask="url(#mask0_230_476)">
<rect width="2289" height="737" fill="white"/>
<path fill-rule="evenodd" clip-rule="evenodd" d="M730.96 -737.282C816.769 -772.254 914.681 -731.043 949.652 -645.235C1210.15 -6.05633 1617.23 226.561 2011.15 279.147C2420.35 333.773 2838.64 196.194 3097.27 49.2239C3177.84 3.44419 3280.26 31.6414 3326.04 112.204C3371.82 192.767 3343.62 295.187 3263.06 340.967C2961.66 512.236 2469.32 678.844 1966.74 611.752C1448.88 542.62 943.033 227.613 638.912 -518.59C603.941 -604.399 645.152 -702.31 730.96 -737.282Z" fill="#FFDC68"/>
<path fill-rule="evenodd" clip-rule="evenodd" d="M-455.48 -702.516C-380.386 -756.803 -275.502 -739.935 -221.216 -664.841C247.411 -16.5947 893.284 239.083 1521.69 294.354C2154.81 350.04 2761.65 200.602 3121.84 47.3355C3207.1 11.0552 3305.64 50.7639 3341.92 136.027C3378.2 221.291 3338.49 319.822 3253.22 356.102C2851.38 527.088 2189.3 689.926 1492.29 628.62C790.574 566.901 45.1066 276.32 -493.155 -468.252C-547.441 -543.346 -530.574 -648.23 -455.48 -702.516Z" fill="#0EFF85"/>
<path fill-rule="evenodd" clip-rule="evenodd" d="M-1164.95 -242.728C-1102.36 -311.061 -996.233 -315.72 -927.901 -253.135C-285.573 335.166 515.041 514.88 1268.72 494.23C2024.19 473.53 2717.48 251.337 3119.68 55.3263C3202.98 14.7325 3303.41 49.3498 3344 132.646C3384.6 215.942 3349.98 316.375 3266.68 356.969C2827.33 571.083 2087.31 807.483 1277.92 829.66C466.734 851.886 -429.077 658.761 -1154.54 -5.68246C-1222.87 -68.2671 -1227.53 -174.396 -1164.95 -242.728Z" fill="#D1532C"/>
</g>
</svg>
